<svg xmlns="http://www.w3.org/2000/svg" version="1.1" xmlns:xlink="http://www.w3.org/1999/xlink" xmlns:svgjs="http://svgjs.dev/svgjs" width="1500" height="272" viewBox="0 0 1500 272"><g transform="matrix(1,0,0,1,-0.9090909090911055,-0.5444152011166352)"><svg viewBox="0 0 396 72" data-background-color="#162836" preserveAspectRatio="xMidYMid meet" height="272" width="1500" xmlns="http://www.w3.org/2000/svg" xmlns:xlink="http://www.w3.org/1999/xlink"><g id="tight-bounds" transform="matrix(1,0,0,1,0.24000000000003752,0.14410990617793118)"><svg viewBox="0 0 395.5199999999999 71.71178018764412" height="71.71178018764412" width="395.5199999999999"><g><svg viewBox="0 0 530.959801337856 96.26838734328359" height="71.71178018764412" width="395.5199999999999"><g><rect width="6.281897626333612" height="83.59049552238805" x="112.713145527403" y="6.3389459104477694" fill="#cf7650" opacity="1" stroke-width="0" stroke="transparent" fill-opacity="1" class="rect-yte-0" data-fill-palette-color="primary" rx="1%" id="yte-0" data-palette-color="#cf7650"></rect></g><g transform="matrix(1,0,0,1,135.439801337856,13.30482053731344)"><svg viewBox="0 0 395.52 69.65874626865671" height="69.65874626865671" width="395.52"><g id="textblocktransform"><svg viewBox="0 0 395.52 69.65874626865671" height="69.65874626865671" width="395.52" id="textblock"><g><svg viewBox="0 0 395.52 69.65874626865671" height="69.65874626865671" width="395.52"><g transform="matrix(1,0,0,1,0,0)"><svg width="395.52" viewBox="1.25 -36.84 212.62 37.45" height="69.65874626865671" data-palette-color="#cf7650"><path d="M27-23.46L27-23.46Q27-19.78 25.24-17.35 23.49-14.92 20.53-13.72 17.58-12.52 13.94-12.55L13.94-12.55Q12.96-12.55 11.78-12.63 10.6-12.72 10.4-12.74L10.4-12.74 10.4-3.44Q10.4-3.08 10.66-2.73 10.91-2.39 11.45-2.34L11.45-2.34 14.75-2.15 14.75 0 1.61 0 1.61-2.15 4.25-2.34Q4.79-2.39 5.07-2.73 5.35-3.08 5.35-3.44L5.35-3.44 5.35-30.1Q5.35-30.47 5.07-30.82 4.79-31.18 4.25-31.2L4.25-31.2 1.25-31.4 1.25-33.54 13.21-33.54Q20.29-33.54 23.65-31.27 27-29 27-23.46ZM21.8-23.39L21.8-23.39Q21.8-27.03 19.76-29.06 17.72-31.1 12.94-31.1L12.94-31.1Q12.26-31.1 11.33-31.08 10.4-31.05 10.4-31.05L10.4-31.05 10.4-15.31Q10.52-15.31 11.51-15.17 12.5-15.04 13.21-15.04L13.21-15.04Q17.14-15.01 19.47-17.03 21.8-19.04 21.8-23.39ZM42.45-1.95L42.45 0 30.3 0 30.3-1.95 32.96-2.1Q33.3-2.12 33.68-2.48 34.06-2.83 34.06-3.15L34.06-3.15 34.06-33.25 30.25-33.25 30.25-34.91 36.64-36.84 38.69-36.84 38.69-3.15Q38.69-2.83 39.06-2.48 39.43-2.12 39.74-2.1L39.74-2.1 42.45-1.95ZM68.4-1.95L68.4 0 61.01 0 60.35-2.95Q60.35-2.95 59.6-2.42 58.86-1.88 57.64-1.17 56.42-0.46 54.94 0.07 53.46 0.61 52 0.61L52 0.61Q49.29 0.61 47.39-1.2 45.5-3 45.5-6.15L45.5-6.15Q45.5-7.54 46-8.74 46.5-9.94 48.01-11.02 49.51-12.11 52.47-13.15 55.44-14.18 60.35-15.26L60.35-15.26Q60.35-15.33 60.35-15.87 60.35-16.41 60.35-16.91 60.35-17.41 60.35-17.41L60.35-17.41Q60.35-22.34 55.68-22.34L55.68-22.34Q54.39-22.34 53.45-22.09 52.51-21.85 52.14-21.7L52.14-21.7 52.14-17.36 48.51-17.36Q47.82-17.36 47.24-17.61 46.65-17.87 46.65-18.8L46.65-18.8Q46.65-20.85 48.21-22.16 49.78-23.46 52.18-24.08 54.58-24.71 57.05-24.71L57.05-24.71Q60.15-24.71 61.86-23.74 63.57-22.78 64.25-21.08 64.94-19.38 64.94-17.21L64.94-17.21 64.94-3.2Q64.94-2.73 65.24-2.44 65.55-2.15 65.99-2.1L65.99-2.1 68.4-1.95ZM60.35-4.71L60.35-4.71 60.35-13.35Q56.98-12.52 54.99-11.68 53-10.84 52.02-10 51.04-9.16 50.74-8.29 50.43-7.42 50.43-6.49L50.43-6.49Q50.43-4.96 51.42-3.65 52.41-2.34 54.19-2.34L54.19-2.34Q55.2-2.34 56.27-2.7 57.34-3.05 58.27-3.53 59.2-4 59.77-4.36 60.35-4.71 60.35-4.71ZM96.57-1.95L96.57 0 85.54 0 85.54-1.95 87.64-2.1Q88.08-2.15 88.38-2.44 88.69-2.73 88.69-3.2L88.69-3.2 88.69-16.21Q88.69-18.58 87.59-19.81 86.49-21.04 83.88-21.04L83.88-21.04Q82.46-21.04 81.06-20.64 79.66-20.24 78.39-19.6L78.39-19.6 78.39-3.2Q78.39-2.17 79.44-2.1L79.44-2.1 81.54-1.95 81.54 0 70.23 0 70.23-1.95 72.67-2.1Q73.72-2.17 73.72-3.2L73.72-3.2 73.72-20.56 70.23-20.56 70.23-22.19 76.34-24.1 78.39-24.1 78.39-21.61Q80.49-22.8 82.7-23.75 84.9-24.71 86.64-24.71L86.64-24.71Q89.91-24.71 91.62-22.67 93.33-20.63 93.33-16.99L93.33-16.99 93.33-3.2Q93.33-2.73 93.63-2.44 93.94-2.15 94.38-2.1L94.38-2.1 96.57-1.95ZM124.57-23.46L124.57-23.46Q124.57-19.78 122.82-17.35 121.06-14.92 118.11-13.72 115.15-12.52 111.51-12.55L111.51-12.55Q110.54-12.55 109.35-12.63 108.17-12.72 107.97-12.74L107.97-12.74 107.97-3.44Q107.97-3.08 108.23-2.73 108.49-2.39 109.02-2.34L109.02-2.34 112.32-2.15 112.32 0 99.18 0 99.18-2.15 101.82-2.34Q102.36-2.39 102.64-2.73 102.92-3.08 102.92-3.44L102.92-3.44 102.92-30.1Q102.92-30.47 102.64-30.82 102.36-31.18 101.82-31.2L101.82-31.2 98.82-31.4 98.82-33.54 110.78-33.54Q117.86-33.54 121.22-31.27 124.57-29 124.57-23.46ZM119.37-23.39L119.37-23.39Q119.37-27.03 117.34-29.06 115.3-31.1 110.51-31.1L110.51-31.1Q109.83-31.1 108.9-31.08 107.97-31.05 107.97-31.05L107.97-31.05 107.97-15.31Q108.1-15.31 109.08-15.17 110.07-15.04 110.78-15.04L110.78-15.04Q114.71-15.01 117.04-17.03 119.37-19.04 119.37-23.39ZM152.01-12.01L152.01-12.01Q152.01-8.47 150.55-5.6 149.08-2.73 146.41-1.06 143.74 0.61 140.08 0.61L140.08 0.61Q136.44 0.61 133.78-1.05 131.12-2.71 129.68-5.57 128.23-8.42 128.23-12.01L128.23-12.01Q128.23-15.58 129.69-18.46 131.14-21.34 133.84-23.02 136.54-24.71 140.22-24.71L140.22-24.71Q143.96-24.71 146.59-23 149.23-21.29 150.62-18.41 152.01-15.53 152.01-12.01ZM146.81-12.06L146.81-12.06Q146.81-14.79 146.09-17.16 145.37-19.53 143.9-21 142.42-22.46 140.17-22.46L140.17-22.46Q137.85-22.46 136.38-21 134.9-19.53 134.19-17.16 133.48-14.79 133.48-12.06L133.48-12.06Q133.48-9.35 134.2-6.97 134.92-4.59 136.4-3.13 137.88-1.66 140.12-1.66L140.12-1.66Q142.42-1.66 143.9-3.13 145.37-4.59 146.09-6.96 146.81-9.33 146.81-12.06ZM164.61-32.35L164.61-32.35Q164.61-31.08 163.73-30.16 162.85-29.25 161.58-29.25L161.58-29.25Q160.31-29.25 159.4-30.16 158.48-31.08 158.48-32.35L158.48-32.35Q158.48-33.64 159.4-34.52 160.31-35.4 161.58-35.4L161.58-35.4Q162.85-35.4 163.73-34.52 164.61-33.64 164.61-32.35ZM167.17-1.95L167.17 0 155.43 0 155.43-1.95 157.87-2.1Q158.92-2.17 158.92-3.2L158.92-3.2 158.92-21.04 155.48-21.04 155.48-22.8 161.58-24.71 163.56-24.71 163.56-3.2Q163.56-2.73 163.86-2.43 164.17-2.12 164.61-2.1L164.61-2.1 167.17-1.95ZM196.22-1.95L196.22 0 185.19 0 185.19-1.95 187.29-2.1Q187.73-2.15 188.03-2.44 188.34-2.73 188.34-3.2L188.34-3.2 188.34-16.21Q188.34-18.58 187.24-19.81 186.14-21.04 183.53-21.04L183.53-21.04Q182.11-21.04 180.71-20.64 179.3-20.24 178.03-19.6L178.03-19.6 178.03-3.2Q178.03-2.17 179.08-2.1L179.08-2.1 181.18-1.95 181.18 0 169.88 0 169.88-1.95 172.32-2.1Q173.37-2.17 173.37-3.2L173.37-3.2 173.37-20.56 169.88-20.56 169.88-22.19 175.98-24.1 178.03-24.1 178.03-21.61Q180.13-22.8 182.34-23.75 184.55-24.71 186.29-24.71L186.29-24.71Q189.56-24.71 191.27-22.67 192.98-20.63 192.98-16.99L192.98-16.99 192.98-3.2Q192.98-2.73 193.28-2.44 193.59-2.15 194.03-2.1L194.03-2.1 196.22-1.95ZM213.87-3.05L213.87-1.05Q213.87-1.05 212.93-0.63 211.99-0.22 210.47 0.2 208.94 0.61 207.13 0.61L207.13 0.61Q204.33 0.61 203.04-0.72 201.76-2.05 201.76-5L201.76-5 201.76-21.61 198.56-21.61 198.56-23.24 201.98-24.85 204.23-30.15 206.43-30.15 206.43-24.1 213.48-24.1 213.48-21.61 206.43-21.61 206.43-7.64Q206.43-4.66 207.43-3.43 208.43-2.2 210.43-2.2L210.43-2.2Q211.89-2.2 212.88-2.62 213.87-3.05 213.87-3.05L213.87-3.05Z" opacity="1" transform="matrix(1,0,0,1,0,0)" fill="#cf7650" class="wordmark-text-0" data-fill-palette-color="primary" id="text-0"></path></svg></g></svg></g></svg></g></svg></g><g><svg viewBox="0 0 96.26838734328359 96.26838734328359" height="96.26838734328359" width="96.26838734328359"><g><svg xmlns="http://www.w3.org/2000/svg" xmlns:xlink="http://www.w3.org/1999/xlink" version="1.1" x="0" y="0" viewBox="11.026 11.026 77.949 77.949" enable-background="new 0 0 100 100" xml:space="preserve" height="96.26838734328359" width="96.26838734328359" class="icon-icon-0" data-fill-palette-color="accent" id="icon-0"><g fill="#d5a187" data-fill-palette-color="accent"><path d="M50 37.014C44.699 37.014 40.386 41.588 40.386 47.211 40.386 47.998 40.474 48.791 40.648 49.568L40.939 50.62C41.089 51.052 41.238 51.419 41.406 51.772 41.908 52.989 42.621 54.651 43.281 55.934 44.028 57.385 44.385 59.39 44.553 60.817 44.586 61.097 44.61 61.342 44.627 61.542H55.371C55.475 60.338 55.801 57.718 56.719 55.936 57.379 54.652 58.091 52.989 58.573 51.82 58.774 51.393 58.932 51.002 59.063 50.606L59.072 50.583 59.364 49.522C59.526 48.79 59.614 47.996 59.614 47.212 59.614 41.588 55.301 37.014 50 37.014M47.003 41.84C46.176 42.52 42.264 46.242 46.461 52.819A1 1 0 1 1 44.775 53.895C39.67 45.895 44.677 41.162 45.733 40.295A0.999 0.999 0 1 1 47.003 41.84" fill="#d5a187" data-fill-palette-color="accent"></path><path d="M50 11.026C28.475 11.026 11.026 28.475 11.026 50 11.026 62.283 16.714 73.232 25.593 80.376L11.026 88.975H50C71.525 88.975 88.975 71.526 88.975 50 88.975 28.475 71.523 11.026 50 11.026M60.903 35.307L64.948 31.262A0.999 0.999 0 1 1 66.362 32.676L62.317 36.721A0.997 0.997 0 0 1 60.903 36.721 1 1 0 0 1 60.903 35.307M49 24.804A1 1 0 0 1 51 24.804V30.525A1 1 0 1 1 49 30.525zM33.639 31.065A1 1 0 0 1 35.053 31.065L39.098 35.11A0.999 0.999 0 1 1 37.684 36.524L33.639 32.479A1 1 0 0 1 33.639 31.065M27.001 47.082A1 1 0 0 1 28.001 46.082H33.722A1 1 0 0 1 33.722 48.082H28.001A1 1 0 0 1 27.001 47.082M39.098 60.129L35.053 64.174A0.997 0.997 0 0 1 33.639 64.174 1 1 0 0 1 33.639 62.76L37.684 58.715A0.999 0.999 0 1 1 39.098 60.129M54.688 70.706H45.314A1 1 0 1 1 45.314 68.706H54.688A1 1 0 1 1 54.688 70.706M55.476 68.329H44.526A1 1 0 1 1 44.526 66.329H55.476A1 1 0 1 1 55.476 68.329M55.476 65.951H44.526A1 1 0 1 1 44.526 63.951H55.476A1 1 0 1 1 55.476 65.951M58.498 56.851C57.563 58.666 57.351 61.816 57.33 62.169L57.309 62.591A1 1 0 0 1 56.31 63.542H43.689A1 1 0 0 1 42.69 62.592L42.67 62.17A20 20 0 0 0 42.567 61.051C42.356 59.267 41.978 57.775 41.503 56.85 40.811 55.504 40.074 53.787 39.577 52.582 39.385 52.18 39.197 51.711 39.039 51.238L39.016 51.158 39.014 51.159 38.709 50.052A12.8 12.8 0 0 1 38.387 47.211C38.387 40.486 43.597 35.014 50.001 35.014S61.616 40.486 61.616 47.211C61.616 48.142 61.512 49.081 61.305 50.004L60.989 51.159V51.158A1 1 0 0 1 60.944 51.289C60.806 51.709 60.618 52.178 60.403 52.629 59.927 53.785 59.19 55.504 58.498 56.851M66.362 64.37A0.997 0.997 0 0 1 64.948 64.37L60.902 60.324A0.999 0.999 0 1 1 62.316 58.91L66.362 62.956A1 1 0 0 1 66.362 64.37M72 48.082H66.279A1 1 0 1 1 66.279 46.082H72A1 1 0 1 1 72 48.082" fill="#d5a187" data-fill-palette-color="accent"></path></g></svg></g></svg></g></svg></g><defs></defs></svg><rect width="395.5199999999999" height="71.71178018764412" fill="none" stroke="none" visibility="hidden"></rect></g></svg></g></svg>